<svg width="228" height="94" viewBox="0 0 228 94" fill="none" xmlns="http://www.w3.org/2000/svg">
<path d="M13.208 63.744C11.224 63.744 9.336 63.168 7.544 62.016C5.752 60.928 4.408 59.232 3.512 56.928C3.192 56.096 2.968 55.2 2.84 54.24C2.712 53.28 2.648 52.384 2.648 51.552V50.688C2.648 50.176 2.68 49.664 2.744 49.152C2.872 48.64 3.16 48.384 3.608 48.384C3.736 48.384 3.8 48.448 3.8 48.576C3.8 48.96 3.768 49.376 3.704 49.824C3.704 50.208 3.704 50.592 3.704 50.976C3.704 53.984 4.44 56.256 5.912 57.792C7.448 59.328 9.336 60.096 11.576 60.096C13.816 60.096 15.992 59.456 18.104 58.176C20.216 56.896 22.168 55.264 23.96 53.28C25.752 51.296 27.448 48.832 29.048 45.888C30.648 42.944 32.152 39.84 33.56 36.576C34.968 33.248 36.28 29.984 37.496 26.784C38.776 23.584 39.96 20.736 41.048 18.24C41.688 16.768 42.872 15.52 44.6 14.496C46.392 13.472 48.088 12.736 49.688 12.288C49.24 12.224 48.792 12.192 48.344 12.192C47.96 12.128 47.576 12.064 47.192 12L33.656 10.656C32.632 10.528 31.288 10.432 29.624 10.368C27.96 10.304 26.2 10.272 24.344 10.272C21.848 10.272 19.288 10.432 16.664 10.752C14.04 11.008 11.672 11.488 9.56 12.192C7.448 12.896 5.912 13.952 4.952 15.36C4.44 16.128 4.184 17.024 4.184 18.048C4.184 19.072 4.472 20.032 5.048 20.928C5.624 21.824 6.36 22.528 7.256 23.04C7.384 23.168 7.448 23.264 7.448 23.328C7.448 23.52 7.288 23.68 6.968 23.808C6.712 23.936 6.424 23.936 6.104 23.808C5.528 23.488 4.856 22.944 4.088 22.176C3.32 21.408 2.616 20.608 1.976 19.776C1.4 18.88 0.984 18.144 0.728 17.568C0.344 16.48 0.152 15.52 0.152 14.688C0.152 13.152 0.664 11.904 1.688 10.944C2.776 9.92 4.152 9.152 5.816 8.64C7.544 8.064 9.368 7.68 11.288 7.488C13.272 7.232 15.16 7.104 16.952 7.104C17.656 7.104 18.328 7.104 18.968 7.104C19.608 7.104 20.216 7.136 20.792 7.2C22.84 7.328 24.984 7.456 27.224 7.584C29.464 7.712 31.736 7.872 34.04 8.064L49.304 9.312C50.328 9.376 51.864 9.504 53.912 9.696C56.024 9.824 58.168 9.888 60.344 9.888C62.712 9.888 64.888 9.76 66.872 9.504C68.856 9.184 70.168 8.64 70.808 7.872C70.936 7.616 71.128 7.552 71.384 7.68C71.64 7.808 71.704 7.968 71.576 8.16C71.384 8.928 71.128 9.504 70.808 9.888C70.488 10.528 70.04 11.232 69.464 12C68.952 12.768 68.152 13.28 67.064 13.536C66.808 13.6 66.456 13.664 66.008 13.728C65.56 13.728 65.08 13.728 64.568 13.728C63.096 13.728 61.304 13.632 59.192 13.44C57.144 13.184 55.128 12.928 53.144 12.672C51.224 12.992 49.56 13.888 48.152 15.36C46.744 16.832 45.528 18.528 44.504 20.448C43.48 22.304 42.584 24.064 41.816 25.728C40.408 28.608 39.224 31.264 38.264 33.696C37.368 36.064 36.248 38.688 34.904 41.568C33.56 44.512 32.152 47.424 30.68 50.304C29.208 53.12 27.416 55.68 25.304 57.984C23.704 59.712 21.848 61.088 19.736 62.112C17.624 63.2 15.448 63.744 13.208 63.744ZM57.9095 60.576C56.9495 60.576 56.0855 60.384 55.3175 60C54.6135 59.616 54.2615 58.912 54.2615 57.888C54.2615 57.312 54.3895 56.672 54.6455 55.968C55.2215 54.496 55.9895 52.704 56.9495 50.592C57.9735 48.48 58.9975 46.432 60.0215 44.448C61.0455 42.4 61.8455 40.736 62.4215 39.456C62.8055 38.688 62.9975 38.144 62.9975 37.824C62.9975 37.248 62.6775 37.12 62.0375 37.44C61.3975 37.76 60.6935 38.208 59.9255 38.784C59.1575 39.36 58.5815 39.808 58.1975 40.128C56.5335 41.664 54.7735 43.488 52.9175 45.6C51.1255 47.648 49.4615 49.824 47.9255 52.128C46.4535 54.368 45.3015 56.608 44.4695 58.848C44.4055 59.232 43.9895 59.552 43.2215 59.808C42.4535 60.064 41.7495 60.192 41.1095 60.192C40.0855 60.192 39.7015 59.872 39.9575 59.232C41.4295 55.904 42.9335 52.224 44.4695 48.192C46.0695 44.16 47.8615 40.032 49.8455 35.808C51.3175 32.608 52.9495 29.312 54.7415 25.92C56.5975 22.528 58.6455 19.296 60.8855 16.224C63.1255 13.088 65.5895 10.336 68.2775 7.96799C70.6455 5.92 73.2375 4.256 76.0535 2.976C78.9335 1.632 82.0375 0.959999 85.3655 0.959999C86.8375 0.959999 88.1175 1.28 89.2055 1.92C90.2935 2.496 90.9015 3.552 91.0295 5.088V5.952C91.0295 6.848 90.9335 7.744 90.7415 8.64C90.6775 8.896 90.4215 9.024 89.9735 9.024C89.7815 9.024 89.7175 8.992 89.7815 8.928C90.0375 7.264 89.5895 6.08 88.4375 5.376C87.3495 4.672 85.9415 4.32 84.2135 4.32C81.0775 4.32 78.1975 4.896 75.5735 6.048C72.9495 7.2 70.5175 8.736 68.2775 10.656C64.8215 13.664 61.8135 17.504 59.2535 22.176C56.6935 26.848 54.4855 31.616 52.6295 36.48C51.7335 38.848 50.8375 41.216 49.9415 43.584C49.1095 45.952 48.3095 48.16 47.5415 50.208C50.4215 46.368 53.1735 43.072 55.7975 40.32C58.4855 37.568 60.8215 35.616 62.8055 34.464C64.4055 33.568 65.8455 33.12 67.1255 33.12C68.3415 33.12 68.9495 33.632 68.9495 34.656C68.9495 35.552 68.5015 36.704 67.6055 38.112C67.1575 38.816 66.4535 40 65.4935 41.664C64.5975 43.328 63.6375 45.152 62.6135 47.136C61.6535 49.056 60.8215 50.848 60.1175 52.512C59.4135 54.176 59.0615 55.392 59.0615 56.16C59.0615 57.184 59.5095 57.696 60.4055 57.696C60.9175 57.696 61.4935 57.536 62.1335 57.216C62.8375 56.896 63.3495 56.608 63.6695 56.352C65.3975 55.072 67.0935 53.504 68.7575 51.648C70.4215 49.792 71.8295 48.16 72.9815 46.752C73.0455 46.688 73.0775 46.784 73.0775 47.04C73.0775 47.296 73.0135 47.68 72.8855 48.192C72.8215 48.64 72.6295 49.024 72.3095 49.344C71.6055 50.304 70.8695 51.232 70.1015 52.128C69.3975 52.96 68.6935 53.792 67.9895 54.624C66.7735 56.032 65.3015 57.376 63.5735 58.656C61.9095 59.936 60.0215 60.576 57.9095 60.576ZM73.4563 60.192C72.4323 60.192 71.5043 60 70.6723 59.616C69.9043 59.168 69.5203 58.24 69.5203 56.832C69.5203 54.592 70.0963 52.352 71.2483 50.112C72.4003 47.808 73.5843 45.792 74.8003 44.064C75.8883 42.592 77.1043 41.216 78.4483 39.936C79.8563 38.592 81.3603 37.44 82.9603 36.48C83.9843 35.84 85.3603 35.168 87.0883 34.464C88.8803 33.696 90.3843 33.312 91.6003 33.312C92.6243 33.312 93.5203 33.6 94.2883 34.176C95.0563 34.688 95.4403 35.648 95.4403 37.056C95.4403 39.232 94.8643 41.472 93.7123 43.776C92.6243 46.016 91.4723 48 90.2563 49.728C89.6803 50.496 89.1043 51.232 88.5283 51.936C87.9523 52.576 87.3123 53.248 86.6083 53.952C88.9763 53.952 91.1523 53.28 93.1363 51.936C95.1203 50.528 96.8483 48.832 98.3203 46.848L98.5123 46.656C98.7043 46.656 98.8003 46.848 98.8003 47.232C98.8003 47.68 98.6723 48.096 98.4163 48.48C97.1363 50.272 95.5363 51.872 93.6163 53.28C91.6963 54.624 89.5203 55.296 87.0883 55.296C86.8323 55.296 86.5763 55.296 86.3203 55.296C86.0643 55.296 85.8083 55.264 85.5523 55.2C81.9683 58.528 77.9363 60.192 73.4563 60.192ZM75.9523 58.56C76.8483 58.56 77.8083 58.24 78.8323 57.6C79.9203 56.96 80.7523 56.352 81.3282 55.776C82.4163 54.688 83.4083 53.536 84.3043 52.32C85.2003 51.04 86.0323 49.76 86.8003 48.48C87.6963 46.944 88.5923 45.12 89.4883 43.008C90.3843 40.896 90.8323 38.912 90.8323 37.056C90.8323 35.584 90.3203 34.848 89.2963 34.848C88.4643 34.848 87.4403 35.2 86.2243 35.904C85.0723 36.608 84.2083 37.248 83.6323 37.824C81.4563 40.064 79.6323 42.496 78.1603 45.12C77.3283 46.592 76.4323 48.32 75.4723 50.304C74.5123 52.288 74.0323 54.112 74.0323 55.776C74.0323 56.032 74.0323 56.288 74.0323 56.544C74.0963 56.736 74.1603 56.96 74.2243 57.216C74.4803 58.112 75.0563 58.56 75.9523 58.56ZM102.703 60.288C102.063 60.288 101.519 60.16 101.071 59.904C100.623 59.648 100.398 59.168 100.398 58.464C100.398 57.568 100.623 56.512 101.071 55.296C101.583 54.08 102.127 52.864 102.703 51.648C103.279 50.432 103.759 49.44 104.143 48.672C104.911 47.2 105.647 45.728 106.351 44.256C107.055 42.784 107.663 41.536 108.174 40.512C108.687 39.552 108.943 38.912 108.943 38.592C108.943 38.08 108.559 38.08 107.791 38.592C107.087 39.104 106.415 39.616 105.775 40.128C104.367 41.472 102.895 43.072 101.359 44.928C99.8225 46.72 98.6385 48.16 97.8065 49.248C97.6145 49.504 97.4545 49.632 97.3265 49.632C97.1985 49.632 97.1345 49.472 97.1345 49.152C97.1345 48.64 97.2945 48.16 97.6145 47.712C98.5105 46.432 99.5665 45.024 100.783 43.488C101.999 41.952 103.247 40.48 104.527 39.072C105.743 37.792 106.991 36.544 108.271 35.328C109.551 34.112 111.183 33.504 113.167 33.504C114.511 33.504 115.183 34.016 115.183 35.04C115.183 35.936 114.799 36.96 114.031 38.112C113.583 38.816 112.879 40 111.919 41.664C110.959 43.328 109.967 45.152 108.943 47.136C107.983 49.056 107.151 50.848 106.447 52.512C105.743 54.176 105.391 55.392 105.391 56.16C105.391 57.056 105.839 57.504 106.734 57.504C107.439 57.504 108.303 57.152 109.327 56.448C110.351 55.68 111.407 54.784 112.495 53.76C114.479 51.84 116.271 49.76 117.871 47.52C119.535 45.216 120.943 43.008 122.095 40.896C123.311 38.784 124.271 37.056 124.975 35.712C125.103 35.456 125.231 35.168 125.359 34.848C125.551 34.464 125.839 34.24 126.223 34.176C126.607 34.112 127.439 34.08 128.719 34.08C129.999 34.08 131.183 33.824 132.271 33.312H132.463C132.655 33.312 132.751 33.408 132.751 33.6C132.751 34.112 132.335 34.496 131.503 34.752C130.735 35.008 129.839 35.776 128.815 37.056C127.855 38.336 126.895 39.904 125.935 41.76C124.975 43.552 124.111 45.408 123.343 47.328C122.575 49.248 121.999 51.008 121.615 52.608C121.231 54.208 121.135 55.392 121.327 56.16C121.583 57.056 122.031 57.504 122.671 57.504C123.503 57.504 124.655 56.992 126.127 55.968C127.663 54.944 129.231 53.728 130.831 52.32C132.431 50.848 133.743 49.504 134.767 48.288C135.215 47.776 135.631 47.264 136.015 46.752C136.399 46.24 136.655 45.92 136.783 45.792C136.847 45.856 136.911 45.984 136.975 46.176C137.039 46.304 137.071 46.432 137.071 46.56C137.007 47.008 136.847 47.456 136.591 47.904C136.335 48.288 136.047 48.64 135.727 48.96C134.511 50.56 133.039 52.256 131.311 54.048C129.647 55.776 127.823 57.248 125.839 58.464C123.919 59.68 121.935 60.288 119.887 60.288C119.247 60.288 118.511 60.128 117.679 59.808C116.911 59.488 116.527 58.784 116.527 57.696C116.527 56.864 116.751 55.744 117.199 54.336C117.647 52.864 118.127 51.424 118.639 50.016C119.215 48.544 119.695 47.456 120.079 46.752C119.247 47.968 118.223 49.344 117.007 50.88C115.855 52.352 114.671 53.664 113.455 54.816C111.855 56.352 110.127 57.664 108.271 58.752C106.479 59.776 104.623 60.288 102.703 60.288ZM117.83 93.6C115.398 93.6 113.062 93.024 110.822 91.872C108.518 90.784 106.822 89.088 105.734 86.784C105.286 85.952 104.998 85.056 104.87 84.096C104.742 83.2 104.678 82.304 104.678 81.408V80.448C104.678 79.936 104.742 79.456 104.87 79.008C104.998 78.56 105.35 78.336 105.926 78.336C106.054 78.336 106.118 78.4 106.118 78.528C106.118 78.912 106.086 79.296 106.022 79.68C105.958 80.064 105.926 80.48 105.926 80.928C105.926 83.872 106.886 86.112 108.806 87.648C110.662 89.184 112.998 89.952 115.814 89.952C116.966 89.952 118.15 89.824 119.366 89.568C120.582 89.312 121.702 88.96 122.726 88.512C126.822 86.784 130.374 84.288 133.382 81.024C136.454 77.76 139.11 74.08 141.35 69.984C143.654 65.888 145.67 61.696 147.398 57.408C149.19 53.056 150.854 48.96 152.39 45.12C151.046 47.296 149.574 49.248 147.974 50.976C146.374 52.64 144.582 54.304 142.598 55.968C141.382 56.992 140.038 57.952 138.566 58.848C137.158 59.744 135.622 60.192 133.958 60.192C133.318 60.192 132.87 60 132.614 59.616C132.358 59.168 132.23 58.656 132.23 58.08V57.408C132.55 54.912 133.35 52.32 134.63 49.632C135.974 46.944 137.574 44.416 139.43 42.048C141.286 39.68 143.174 37.76 145.094 36.288C147.27 34.624 149.67 33.792 152.294 33.792H163.334C163.654 33.792 163.814 33.92 163.814 34.176C163.814 34.688 163.526 34.944 162.95 34.944C162.246 34.944 161.574 35.232 160.934 35.808C160.294 36.384 159.814 36.928 159.494 37.44C158.854 38.464 158.022 40.032 156.998 42.144C155.974 44.256 154.854 46.688 153.638 49.44C152.422 52.128 151.206 54.88 149.99 57.696C148.774 60.448 147.654 63.04 146.63 65.472C145.094 69.12 143.334 72.672 141.35 76.128C139.43 79.648 137.126 82.784 134.438 85.536C131.814 88.352 128.678 90.56 125.03 92.16C122.854 93.12 120.454 93.6 117.83 93.6ZM137.894 56.928C138.662 56.928 139.718 56.384 141.062 55.296C142.406 54.144 143.878 52.736 145.478 51.072C147.078 49.344 148.582 47.552 149.99 45.696C151.398 43.776 152.55 42.048 153.446 40.512C154.406 38.912 154.886 37.696 154.886 36.864C154.886 36.16 154.662 35.68 154.214 35.424C153.83 35.168 153.318 35.04 152.678 35.04C151.654 35.04 150.566 35.424 149.414 36.192C148.262 36.896 147.334 37.6 146.63 38.304C145.862 39.008 144.934 40.128 143.846 41.664C142.822 43.136 141.766 44.768 140.678 46.56C139.654 48.352 138.79 50.08 138.086 51.744C137.382 53.408 137.03 54.752 137.03 55.776C137.03 56.544 137.318 56.928 137.894 56.928ZM174.628 60.576C173.668 60.576 172.804 60.384 172.036 60C171.332 59.616 170.98 58.912 170.98 57.888C170.98 57.312 171.108 56.672 171.364 55.968C171.94 54.496 172.708 52.704 173.668 50.592C174.692 48.48 175.716 46.432 176.74 44.448C177.764 42.4 178.564 40.736 179.14 39.456C179.524 38.688 179.716 38.144 179.716 37.824C179.716 37.248 179.396 37.12 178.756 37.44C178.116 37.76 177.412 38.208 176.644 38.784C175.876 39.36 175.3 39.808 174.916 40.128C173.252 41.664 171.492 43.488 169.636 45.6C167.844 47.648 166.18 49.824 164.644 52.128C163.172 54.368 162.02 56.608 161.188 58.848C161.124 59.232 160.708 59.552 159.94 59.808C159.172 60.064 158.468 60.192 157.828 60.192C156.804 60.192 156.42 59.872 156.676 59.232C158.148 55.904 159.652 52.224 161.188 48.192C162.788 44.16 164.58 40.032 166.564 35.808C168.036 32.608 169.668 29.312 171.46 25.92C173.316 22.528 175.364 19.296 177.604 16.224C179.844 13.088 182.308 10.336 184.996 7.96799C187.364 5.92 189.956 4.256 192.772 2.976C195.652 1.632 198.756 0.959999 202.084 0.959999C203.556 0.959999 204.836 1.28 205.924 1.92C207.012 2.496 207.62 3.552 207.748 5.088V5.952C207.748 6.848 207.652 7.744 207.46 8.64C207.396 8.896 207.14 9.024 206.692 9.024C206.5 9.024 206.436 8.992 206.5 8.928C206.756 7.264 206.308 6.08 205.156 5.376C204.068 4.672 202.66 4.32 200.932 4.32C197.796 4.32 194.916 4.896 192.292 6.048C189.668 7.2 187.236 8.736 184.996 10.656C181.54 13.664 178.532 17.504 175.972 22.176C173.412 26.848 171.204 31.616 169.348 36.48C168.452 38.848 167.556 41.216 166.66 43.584C165.828 45.952 165.028 48.16 164.26 50.208C167.14 46.368 169.892 43.072 172.516 40.32C175.204 37.568 177.54 35.616 179.524 34.464C181.124 33.568 182.564 33.12 183.844 33.12C185.06 33.12 185.668 33.632 185.668 34.656C185.668 35.552 185.22 36.704 184.324 38.112C183.876 38.816 183.172 40 182.212 41.664C181.316 43.328 180.356 45.152 179.332 47.136C178.372 49.056 177.54 50.848 176.836 52.512C176.132 54.176 175.78 55.392 175.78 56.16C175.78 57.184 176.228 57.696 177.124 57.696C177.636 57.696 178.212 57.536 178.852 57.216C179.556 56.896 180.068 56.608 180.388 56.352C182.116 55.072 183.812 53.504 185.476 51.648C187.14 49.792 188.548 48.16 189.7 46.752C189.764 46.688 189.796 46.784 189.796 47.04C189.796 47.296 189.732 47.68 189.604 48.192C189.54 48.64 189.348 49.024 189.028 49.344C188.324 50.304 187.588 51.232 186.82 52.128C186.116 52.96 185.412 53.792 184.708 54.624C183.492 56.032 182.02 57.376 180.292 58.656C178.628 59.936 176.74 60.576 174.628 60.576ZM192.479 60.288C191.839 60.288 191.295 60.16 190.847 59.904C190.399 59.648 190.175 59.168 190.175 58.464C190.175 57.568 190.399 56.512 190.847 55.296C191.359 54.08 191.903 52.864 192.479 51.648C193.055 50.432 193.535 49.44 193.919 48.672C194.239 48.096 194.655 47.2 195.167 45.984C195.743 44.704 196.319 43.392 196.895 42.048C197.535 40.64 198.047 39.456 198.431 38.496C198.879 37.536 199.103 37.056 199.103 37.056C198.527 37.696 197.759 38.592 196.799 39.744C195.903 40.896 194.911 42.112 193.823 43.392C192.799 44.608 191.839 45.76 190.943 46.848C190.111 47.936 189.503 48.736 189.119 49.248C188.927 49.504 188.767 49.632 188.639 49.632C188.511 49.632 188.447 49.472 188.447 49.152C188.447 48.64 188.607 48.16 188.927 47.712C189.695 46.752 190.623 45.6 191.711 44.256C192.799 42.848 193.887 41.44 194.975 40.032C196.127 38.624 197.119 37.376 197.951 36.288C197.439 36.288 196.767 36.32 195.935 36.384C195.167 36.448 194.463 36.544 193.823 36.672C193.183 36.736 192.831 36.768 192.767 36.768C192.447 36.768 192.479 36.512 192.863 36C193.247 35.488 193.759 34.976 194.399 34.464C195.039 33.952 195.519 33.696 195.839 33.696C195.903 33.696 196.415 33.728 197.375 33.792C198.335 33.792 199.039 33.792 199.487 33.792C200.767 32.064 202.015 30.08 203.231 27.84C204.511 25.6 205.759 23.136 206.975 20.448C207.487 20.384 208.351 20.032 209.567 19.392C210.847 18.688 211.839 17.984 212.543 17.28C212.863 16.96 213.119 16.8 213.311 16.8C213.695 16.8 213.695 17.056 213.311 17.568C212.863 18.08 212.095 19.168 211.007 20.832C209.919 22.432 208.703 24.384 207.359 26.688C206.015 28.928 204.735 31.296 203.519 33.792H211.295C211.999 33.792 212.351 33.888 212.351 34.08C212.351 34.336 211.871 34.592 210.911 34.848C209.823 35.168 208.671 35.36 207.455 35.424C206.303 35.488 205.215 35.616 204.191 35.808C203.231 36 202.527 36.416 202.079 37.056C201.695 37.504 201.151 38.464 200.447 39.936C199.743 41.408 198.975 43.104 198.143 45.024C197.375 46.88 196.703 48.768 196.127 50.688C195.551 52.544 195.199 54.112 195.071 55.392V55.776C195.071 56.288 195.231 56.704 195.551 57.024C195.871 57.344 196.191 57.504 196.511 57.504C197.343 57.504 198.399 56.992 199.679 55.968C201.023 54.944 202.399 53.728 203.807 52.32C205.215 50.848 206.431 49.504 207.455 48.288C207.903 47.776 208.287 47.296 208.607 46.848C208.991 46.4 209.215 46.112 209.279 45.984C209.407 46.24 209.471 46.432 209.471 46.56C209.471 46.944 209.343 47.36 209.087 47.808C208.895 48.256 208.671 48.64 208.415 48.96C207.199 50.56 205.727 52.256 203.999 54.048C202.271 55.776 200.415 57.248 198.431 58.464C196.511 59.68 194.527 60.288 192.479 60.288ZM213.43 61.536C212.278 61.536 211.062 61.376 209.782 61.056C208.502 60.736 207.35 60.224 206.326 59.52C205.366 58.752 204.726 57.728 204.406 56.448C204.342 56.256 204.31 55.968 204.31 55.584C204.31 54.688 204.502 53.696 204.886 52.608C205.334 51.52 205.878 50.752 206.518 50.304C206.774 50.176 206.966 50.176 207.094 50.304C207.286 50.432 207.318 50.56 207.19 50.688C207.126 50.88 207.03 51.136 206.902 51.456C206.774 51.712 206.678 52 206.614 52.32C206.422 53.984 206.774 55.456 207.67 56.736C208.054 57.248 208.502 57.728 209.014 58.176C209.59 58.624 210.134 59.008 210.646 59.328C211.094 59.584 211.638 59.776 212.278 59.904C212.918 59.968 213.558 60 214.198 60C215.222 60 216.214 59.872 217.174 59.616C218.134 59.36 218.838 58.944 219.286 58.368C220.118 57.344 220.534 56.192 220.534 54.912C220.534 53.952 220.278 52.928 219.766 51.84C219.254 50.752 218.454 49.6 217.366 48.384C216.662 47.616 215.99 46.784 215.35 45.888C214.71 44.992 214.294 44.032 214.102 43.008C214.038 42.816 213.974 42.624 213.91 42.432C213.91 42.24 213.91 42.048 213.91 41.856C213.078 43.072 212.214 44.224 211.318 45.312C210.486 46.336 209.75 47.232 209.11 48C208.854 48.384 208.63 48.576 208.438 48.576C208.31 48.576 208.246 48.448 208.246 48.192C208.246 47.616 208.502 47.008 209.014 46.368C209.526 45.792 210.102 45.088 210.742 44.256C211.382 43.36 211.894 42.656 212.278 42.144C213.366 40.544 214.166 39.296 214.678 38.4C215.254 37.44 215.862 36.576 216.502 35.808C217.206 34.976 218.07 34.304 219.094 33.792C220.182 33.28 221.302 33.024 222.454 33.024C223.798 33.024 225.014 33.248 226.102 33.696C227.254 34.08 227.862 35.104 227.926 36.768C227.926 37.536 227.766 38.336 227.446 39.168C227.19 39.936 226.902 40.672 226.582 41.376C226.39 41.76 226.102 42.048 225.718 42.24C225.398 42.368 225.238 42.304 225.238 42.048C225.238 41.792 225.27 41.504 225.334 41.184C225.398 40.864 225.43 40.576 225.43 40.32C225.43 39.232 225.238 38.272 224.854 37.44C224.534 36.544 224.054 35.904 223.414 35.52C222.774 35.072 222.102 34.848 221.398 34.848C220.374 34.848 219.382 35.264 218.422 36.096C217.462 36.864 216.982 37.888 216.982 39.168C216.982 39.296 216.982 39.456 216.982 39.648C216.982 39.84 217.014 40 217.078 40.128C217.334 41.152 218.102 42.304 219.382 43.584C220.662 44.864 221.654 45.984 222.358 46.944C223.574 48.608 224.182 50.304 224.182 52.032C224.182 53.76 223.67 55.36 222.646 56.832C221.686 58.24 220.374 59.36 218.71 60.192C217.11 61.088 215.35 61.536 213.43 61.536Z" fill="black"/>
</svg>
